# Exported from Nomad Sculpt
o Box
usemtl Box
v -0.30184126 -0.5 -0.5 0.999999940 0.999999940 0.999999940
v -0.49999994 -0.49999994 -0.5 0.999999940 0.999999940 0.999999940
v -0.5 -0.30184126 -0.5 0.999999940 0.999999940 0.999999940
v -0.2935538 -0.2935538 -0.5 0.999999940 0.999999940 0.999999940
v -0.10185529 -0.49999994 -0.49999994 0.999999940 0.999999940 0.999999940
v -0.10022758 -0.29207438 -0.5 0.999999940 0.999999940 0.999999940
v -0.5 -0.10185532 -0.5 0.999999940 0.999999940 0.999999940
v -0.29207438 -0.10022758 -0.5 0.999999940 0.999999940 0.999999940
v -0.09999999 -0.09999999 -0.5 0.999999940 0.999999940 0.999999940
v -0.5 -0.5 -0.30184126 0.999999940 0.999999940 0.999999940
v -0.2935538 -0.5 -0.29355383 0.999999940 0.999999940 0.999999940
v -0.10022757 -0.5 -0.29207438 0.999999940 0.999999940 0.999999940
v -0.5 -0.2935538 -0.2935538 0.999999940 0.999999940 0.999999940
v -0.5 -0.10022756 -0.29207438 0.999999940 0.999999940 0.999999940
v -0.5 0.10185536 -0.5 0.999999940 0.999999940 0.999999940
v -0.29207438 0.100227594 -0.5 0.999999940 0.999999940 0.999999940
v -0.49999994 0.100227579 -0.29207435 0.999999940 0.999999940 0.999999940
v -0.09999999 0.099999994 -0.5 0.999999940 0.999999940 0.999999940
v 0.100227594 -0.29207438 -0.5 0.999999940 0.999999940 0.999999940
v 0.100000008 -0.09999999 -0.5 0.999999940 0.999999940 0.999999940
v 0.099999994 0.099999994 -0.5 0.999999940 0.999999940 0.999999940
v 0.10185536 -0.5 -0.5 0.999999940 0.999999940 0.999999940
v 0.100227594 -0.5 -0.29207438 0.999999940 0.999999940 0.999999940
v -0.29207438 -0.5 -0.10022757 0.999999940 0.999999940 0.999999940
v -0.09999999 -0.5 -0.09999999 0.999999940 0.999999940 0.999999940
v 0.099999994 -0.5 -0.09999999 0.999999940 0.999999940 0.999999940
v -0.5 -0.5 -0.10185531 0.999999940 0.999999940 0.999999940
v -0.5 -0.29207438 -0.10022757 0.999999940 0.999999940 0.999999940
v -0.5 -0.09999999 -0.10000001 0.999999940 0.999999940 0.999999940
v -0.5 0.099999994 -0.09999999 0.999999940 0.999999940 0.999999940
v -0.5 0.293553918 -0.2935538 0.999999940 0.999999940 0.999999940
v -0.5 0.301841735 -0.5 0.999999940 0.999999940 0.999999940
v -0.5 0.292074441 -0.10022758 0.999999940 0.999999940 0.999999940
v -0.2935538 0.293553918 -0.5 0.999999940 0.999999940 0.999999940
v -0.10022757 0.292074471 -0.5 0.999999940 0.999999940 0.999999940
v 0.100227579 0.292074412 -0.5 0.999999940 0.999999940 0.999999940
v 0.292074441 -0.10022757 -0.5 0.999999940 0.999999940 0.999999940
v 0.292074441 0.100227579 -0.5 0.999999940 0.999999940 0.999999940
v 0.293553888 0.293553888 -0.5 0.999999940 0.999999940 0.999999940
v 0.293553918 -0.2935538 -0.5 0.999999940 0.999999940 0.999999940
v 0.301841735 -0.5 -0.5 0.999999940 0.999999940 0.999999940
v 0.293553888 -0.5 -0.2935538 0.999999940 0.999999940 0.999999940
v 0.292074471 -0.5 -0.10022758 0.999999940 0.999999940 0.999999940
v -0.09999999 -0.5 0.099999994 0.999999940 0.999999940 0.999999940
v 0.099999994 -0.5 0.099999994 0.999999940 0.999999940 0.999999940
v 0.292074441 -0.5 0.100227579 0.999999940 0.999999940 0.999999940
v -0.29207438 -0.49999994 0.100227594 0.999999940 0.999999940 0.999999940
v -0.5 -0.5 0.10185536 0.999999940 0.999999940 0.999999940
v -0.5 -0.29207438 0.100227579 0.999999940 0.999999940 0.999999940
v -0.5 -0.09999999 0.099999994 0.999999940 0.999999940 0.999999940
v -0.5 0.099999994 0.099999994 0.999999940 0.999999940 0.999999940
v -0.5 0.292074412 0.100227579 0.999999940 0.999999940 0.999999940
v -0.49999774 0.5 -0.30184081 0.999999940 0.999999940 0.999999940
v -0.49999785 0.5 -0.10185526 0.999999940 0.999999940 0.999999940
v -0.49999785 0.5 0.101855307 0.999999940 0.999999940 0.999999940
v -0.5 0.499997943 -0.5 0.999999940 0.999999940 0.999999940
v -0.30184084 0.5 -0.49999776 0.999999940 0.999999940 0.999999940
v -0.10185525 0.5 -0.49999785 0.999999940 0.999999940 0.999999940
v 0.101855307 0.5 -0.49999785 0.999999940 0.999999940 0.999999940
v 0.301841288 0.5 -0.49999774 0.999999940 0.999999940 0.999999940
v 0.499999940 0.101855292 -0.49999782 0.999999940 0.999999940 0.999999940
v 0.5 0.301841259 -0.49999774 0.999999940 0.999999940 0.999999940
v 0.499997943 0.499997943 -0.5 0.999999940 0.999999940 0.999999940
v 0.5 -0.10185525 -0.49999782 0.999999940 0.999999940 0.999999940
v 0.5 -0.30184081 -0.49999776 0.999999940 0.999999940 0.999999940
v 0.408333301 -0.4083333 -0.4083333 0.999999940 0.999999940 0.999999940
v 0.5 -0.49999774 -0.30184081 0.999999940 0.999999940 0.999999940
v 0.5 -0.49999785 -0.10185525 0.999999940 0.999999940 0.999999940
v 0.5 -0.49999785 0.101855307 0.999999940 0.999999940 0.999999940
v 0.100227579 -0.5 0.292074441 0.999999940 0.999999940 0.999999940
v 0.293553918 -0.5 0.293553918 0.999999940 0.999999940 0.999999940
v 0.5 -0.49999774 0.301841259 0.999999940 0.999999940 0.999999940
v -0.10022758 -0.5 0.292074412 0.999999940 0.999999940 0.999999940
v -0.2935538 -0.5 0.293553918 0.999999940 0.999999940 0.999999940
v -0.5 -0.5 0.301841765 0.999999940 0.999999940 0.999999940
v -0.5 -0.2935538 0.293553918 0.999999940 0.999999940 0.999999940
v -0.5 -0.10022758 0.292074412 0.999999940 0.999999940 0.999999940
v -0.5 0.100227594 0.292074471 0.999999940 0.999999940 0.999999940
v -0.5 0.293553918 0.293553918 0.999999940 0.999999940 0.999999940
v -0.49999776 0.5 0.301841259 0.999999940 0.999999940 0.999999940
v -0.29207438 0.5 -0.10022757 0.999999940 0.999999940 0.999999940
v -0.29207438 0.5 0.100227579 0.999999940 0.999999940 0.999999940
v -0.2935538 0.5 0.293553888 0.999999940 0.999999940 0.999999940
v -0.2935538 0.5 -0.2935538 0.999999940 0.999999940 0.999999940
v -0.10022758 0.5 -0.29207438 0.999999940 0.999999940 0.999999940
v -0.09999999 0.5 -0.09999999 0.999999940 0.999999940 0.999999940
v -0.09999999 0.5 0.099999994 0.999999940 0.999999940 0.999999940
v -0.10022757 0.5 0.292074412 0.999999940 0.999999940 0.999999940
v -0.5 0.499997943 0.499997943 0.999999940 0.999999940 0.999999940
v -0.30184081 0.5 0.5 0.999999940 0.999999940 0.999999940
v -0.10185524 0.5 0.5 0.999999940 0.999999940 0.999999940
v -0.49999774 0.301841288 0.5 0.999999940 0.999999940 0.999999940
v -0.49999782 0.101855307 0.499999940 0.999999940 0.999999940 0.999999940
v -0.49999782 -0.10185526 0.499999940 0.999999940 0.999999940 0.999999940
v -0.49999776 -0.30184081 0.5 0.999999940 0.999999940 0.999999940
v -0.49999994 -0.49999994 0.499997943 0.999999940 0.999999940 0.999999940
v -0.30184081 -0.49999774 0.5 0.999999940 0.999999940 0.999999940
v -0.10185525 -0.49999782 0.499999940 0.999999940 0.999999940 0.999999940
v 0.101855307 -0.49999785 0.5 0.999999940 0.999999940 0.999999940
v 0.301841259 -0.49999776 0.5 0.999999940 0.999999940 0.999999940
v 0.499997884 -0.5 0.499997943 0.999999940 0.999999940 0.999999940
v 0.100227579 -0.29207438 0.5 0.999999940 0.999999940 0.999999940
v 0.293553918 -0.2935538 0.5 0.999999940 0.999999940 0.999999940
v 0.5 -0.30184081 0.5 0.999999940 0.999999940 0.999999940
v -0.10022758 -0.29207438 0.5 0.999999940 0.999999940 0.999999940
v -0.2935538 -0.2935538 0.5 0.999999940 0.999999940 0.999999940
v -0.29207438 -0.10022758 0.499999940 0.999999940 0.999999940 0.999999940
v -0.29207438 0.100227579 0.5 0.999999940 0.999999940 0.999999940
v -0.2935538 0.293553918 0.5 0.999999940 0.999999940 0.999999940
v -0.10022757 0.292074412 0.499999940 0.999999940 0.999999940 0.999999940
v 0.101855315 0.5 0.5 0.999999940 0.999999940 0.999999940
v 0.100227594 0.5 0.292074471 0.999999940 0.999999940 0.999999940
v 0.100227579 0.292074412 0.5 0.999999940 0.999999940 0.999999940
v 0.099999994 0.5 0.099999994 0.999999940 0.999999940 0.999999940
v 0.099999994 0.5 -0.09999999 0.999999940 0.999999940 0.999999940
v 0.100227579 0.5 -0.29207438 0.999999940 0.999999940 0.999999940
v 0.293553918 0.5 -0.29355383 0.999999940 0.999999940 0.999999940
v 0.292074412 0.5 -0.10022757 0.999999940 0.999999940 0.999999940
v 0.292074412 0.5 0.100227579 0.999999940 0.999999940 0.999999940
v 0.293553918 0.5 0.293553918 0.999999940 0.999999940 0.999999940
v 0.301841259 0.5 0.5 0.999999940 0.999999940 0.999999940
v 0.293553918 0.293553888 0.5 0.999999940 0.999999940 0.999999940
v -0.09999999 0.099999994 0.5 0.999999940 0.999999940 0.999999940
v 0.099999994 0.099999994 0.5 0.999999940 0.999999940 0.999999940
v 0.292074471 0.100227594 0.5 0.999999940 0.999999940 0.999999940
v -0.10000001 -0.09999999 0.5 0.999999940 0.999999940 0.999999940
v 0.099999994 -0.09999999 0.5 0.999999940 0.999999940 0.999999940
v 0.292074412 -0.10022757 0.5 0.999999940 0.999999940 0.999999940
v 0.5 -0.10185524 0.5 0.999999940 0.999999940 0.999999940
v 0.5 -0.2935538 0.293553888 0.999999940 0.999999940 0.999999940
v 0.5 -0.10022757 0.292074441 0.999999940 0.999999940 0.999999940
v 0.499999940 0.101855307 0.499999940 0.999999940 0.999999940 0.999999940
v 0.5 0.100227579 0.292074412 0.999999940 0.999999940 0.999999940
v 0.499999940 0.301841259 0.499999940 0.999999940 0.999999940 0.999999940
v 0.5 0.5 0.5 0.999999940 0.999999940 0.999999940
v 0.5 0.5 0.301841259 0.999999940 0.999999940 0.999999940
v 0.499999940 0.499999940 0.101855307 0.999999940 0.999999940 0.999999940
v 0.5 0.5 -0.10185525 0.999999940 0.999999940 0.999999940
v 0.5 0.5 -0.30184081 0.999999940 0.999999940 0.999999940
v 0.5 0.293553888 -0.2935538 0.999999940 0.999999940 0.999999940
v 0.5 0.292074412 -0.10022757 0.999999940 0.999999940 0.999999940
v 0.5 0.292074441 0.100227579 0.999999940 0.999999940 0.999999940
v 0.5 0.293553888 0.293553888 0.999999940 0.999999940 0.999999940
v 0.5 -0.09999999 0.100000008 0.999999940 0.999999940 0.999999940
v 0.5 0.099999994 0.099999994 0.999999940 0.999999940 0.999999940
v 0.5 -0.29207438 0.100227594 0.999999940 0.999999940 0.999999940
v 0.5 -0.29207438 -0.10022758 0.999999940 0.999999940 0.999999940
v 0.5 -0.09999999 -0.09999999 0.999999940 0.999999940 0.999999940
v 0.5 0.099999994 -0.09999999 0.999999940 0.999999940 0.999999940
v 0.5 0.100227579 -0.29207438 0.999999940 0.999999940 0.999999940
v 0.5 -0.10022757 -0.29207438 0.999999940 0.999999940 0.999999940
v 0.5 -0.2935538 -0.2935538 0.999999940 0.999999940 0.999999940
s 0
f 1 2 3 4
f 5 1 4 6
f 4 3 7 8
f 6 4 8 9
f 10 2 1 11
f 11 1 5 12
f 13 3 2 10
f 7 3 13 14
f 8 7 15 16
f 15 7 14 17
f 9 8 16 18
f 19 6 9 20
f 20 9 18 21
f 22 5 6 19
f 12 5 22 23
f 24 11 12 25
f 25 12 23 26
f 24 27 10 11
f 13 10 27 28
f 29 14 13 28
f 17 14 29 30
f 31 32 15 17
f 31 17 30 33
f 16 15 32 34
f 35 18 16 34
f 21 18 35 36
f 37 20 21 38
f 38 21 36 39
f 40 19 20 37
f 41 22 19 40
f 23 22 41 42
f 43 26 23 42
f 44 25 26 45
f 45 26 43 46
f 47 24 25 44
f 47 48 27 24
f 28 27 48 49
f 29 28 49 50
f 30 29 50 51
f 33 30 51 52
f 53 31 33 54
f 55 54 33 52
f 56 32 31 53
f 34 32 56 57
f 35 34 57 58
f 36 35 58 59
f 39 36 59 60
f 61 38 39 62
f 62 39 60 63
f 64 37 38 61
f 65 40 37 64
f 65 66 41 40
f 67 42 41 66
f 43 42 67 68
f 46 43 68 69
f 70 45 46 71
f 71 46 69 72
f 73 44 45 70
f 74 47 44 73
f 75 48 47 74
f 76 49 48 75
f 50 49 76 77
f 51 50 77 78
f 52 51 78 79
f 55 52 79 80
f 81 54 55 82
f 82 55 80 83
f 81 84 53 54
f 85 84 81 86
f 87 86 81 82
f 88 87 82 83
f 83 80 89 90
f 88 83 90 91
f 89 80 79 92
f 92 79 78 93
f 78 77 94 93
f 77 76 95 94
f 76 75 96 95
f 96 75 74 97
f 97 74 73 98
f 98 73 70 99
f 99 70 71 100
f 100 71 72 101
f 102 99 100 103
f 104 103 100 101
f 105 98 99 102
f 105 106 97 98
f 106 95 96 97
f 94 95 106 107
f 108 93 94 107
f 92 93 108 109
f 89 92 109 90
f 90 109 110 91
f 111 112 88 91
f 91 110 113 111
f 114 87 88 112
f 115 86 87 114
f 115 116 85 86
f 117 116 115 118
f 118 115 114 119
f 119 114 112 120
f 121 120 112 111
f 111 113 122 121
f 110 123 124 113
f 113 124 125 122
f 109 108 123 110
f 123 108 107 126
f 107 106 105 126
f 126 105 102 127
f 127 102 103 128
f 128 103 104 129
f 101 72 130 104
f 104 130 131 129
f 132 129 131 133
f 132 125 128 129
f 124 127 128 125
f 122 125 132 134
f 135 121 122 134
f 135 136 120 121
f 136 137 119 120
f 138 118 119 137
f 139 117 118 138
f 60 59 116 117
f 63 60 117 139
f 59 58 85 116
f 58 57 84 85
f 57 56 53 84
f 140 62 63 139
f 141 140 139 138
f 142 141 138 137
f 143 142 137 136
f 134 143 136 135
f 132 133 143 134
f 131 144 145 133
f 133 145 142 143
f 130 146 144 131
f 130 72 69 146
f 69 68 147 146
f 146 147 148 144
f 144 148 149 145
f 145 149 141 142
f 141 149 150 140
f 140 150 61 62
f 151 64 61 150
f 149 148 151 150
f 147 152 151 148
f 68 67 152 147
f 67 66 65 152
f 152 65 64 151
f 123 126 127 124
