# Exported from Nomad Sculpt
o a
usemtl a
v -0.0162717 0.532051205 -0.08612032 0.816393673 0.816393673 0.816393673
v -0.01547727 0.505561828 -0.07798383 0.816393673 0.816393673 0.816393673
v -0.03908813 0.509234786 -0.07197565 0.816393673 0.816393673 0.816393673
v -0.04276113 0.532845616 -0.07798382 0.816393673 0.816393673 0.816393673
v 0.016271714 0.532051205 -0.08612038 0.816393673 0.816393673 0.816393673
v 0.015477279 0.505561828 -0.07798383 0.816393673 0.816393673 0.816393673
v 0.039088182 0.509234786 -0.07197563 0.816393673 0.816393673 0.816393673
v 0.042761061 0.532845616 -0.07798388 0.816393673 0.816393673 0.816393673
v -0.01627171 0.564594626 -0.0861204 0.816393673 0.816393673 0.816393673
v -0.04276113 0.563800215 -0.07798384 0.816393673 0.816393673 0.816393673
v 0.016271706 0.564594626 -0.08612031 0.816393673 0.816393673 0.816393673
v 0.042761042 0.563800215 -0.07798386 0.816393673 0.816393673 0.816393673
v -0.03908812 0.587411105 -0.07197563 0.816393673 0.816393673 0.816393673
v -0.01547727 0.591084003 -0.07798387 0.816393673 0.816393673 0.816393673
v 0.015477285 0.591084003 -0.07798386 0.816393673 0.816393673 0.816393673
v 0.039088174 0.587411105 -0.07197561 0.816393673 0.816393673 0.816393673
v -0.01833631 0.485279917 -0.06304299 0.816393673 0.816393673 0.816393673
v -0.05280679 0.495516121 -0.05280679 0.816393673 0.816393673 0.816393673
v -0.01547727 0.470339089 -0.04276112 0.816393673 0.816393673 0.816393673
v -0.03908813 0.476347267 -0.03908813 0.816393673 0.816393673 0.816393673
v 0.018336337 0.485279917 -0.06304299 0.816393673 0.816393673 0.816393673
v 0.015477278 0.470339059 -0.04276112 0.816393673 0.816393673 0.816393673
v 0.052806712 0.495516091 -0.05280682 0.816393673 0.816393673 0.816393673
v 0.039088185 0.476347267 -0.03908811 0.816393673 0.816393673 0.816393673
v -0.063043 0.529986619 -0.06304299 0.816393673 0.816393673 0.816393673
v -0.07197566 0.509234786 -0.03908813 0.816393673 0.816393673 0.816393673
v -0.07798385 0.532845616 -0.04276113 0.816393673 0.816393673 0.816393673
v 0.063042931 0.529986619 -0.06304302 0.816393673 0.816393673 0.816393673
v 0.071975700 0.509234845 -0.03908809 0.816393673 0.816393673 0.816393673
v 0.077983863 0.532845675 -0.04276105 0.816393673 0.816393673 0.816393673
v -0.063043 0.566659271 -0.06304299 0.816393673 0.816393673 0.816393673
v -0.07798383 0.563800215 -0.04276112 0.816393673 0.816393673 0.816393673
v 0.063042931 0.566659271 -0.06304301 0.816393673 0.816393673 0.816393673
v 0.077983871 0.563800215 -0.04276106 0.816393673 0.816393673 0.816393673
v -0.05280683 0.601129651 -0.05280682 0.816393673 0.816393673 0.816393673
v -0.07197564 0.587411105 -0.03908811 0.816393673 0.816393673 0.816393673
v -0.01833632 0.611365914 -0.06304302 0.816393673 0.816393673 0.816393673
v 0.018336342 0.611365854 -0.06304302 0.816393673 0.816393673 0.816393673
v 0.052806742 0.601129651 -0.05280685 0.816393673 0.816393673 0.816393673
v 0.071975678 0.587411046 -0.03908807 0.816393673 0.816393673 0.816393673
v -0.03908809 0.620298624 -0.03908808 0.816393673 0.816393673 0.816393673
v -0.01547725 0.626306772 -0.04276106 0.816393673 0.816393673 0.816393673
v 0.015477258 0.626306772 -0.04276105 0.816393673 0.816393673 0.816393673
v 0.039088137 0.620298624 -0.03908807 0.816393673 0.816393673 0.816393673
v -0.0162717 0.462202578 -0.01627169 0.816393673 0.816393673 0.816393673
v -0.04276113 0.470339059 -0.01547726 0.816393673 0.816393673 0.816393673
v 0.016271714 0.462202519 -0.0162717 0.816393673 0.816393673 0.816393673
v 0.042761061 0.47033903 -0.01547727 0.816393673 0.816393673 0.816393673
v -0.063043 0.485279917 -0.01833631 0.816393673 0.816393673 0.816393673
v -0.07798384 0.505561769 -0.01547726 0.816393673 0.816393673 0.816393673
v 0.063042938 0.485279917 -0.01833631 0.816393673 0.816393673 0.816393673
v 0.077983871 0.505561888 -0.01547724 0.816393673 0.816393673 0.816393673
v -0.0861204 0.532051205 -0.0162717 0.816393673 0.816393673 0.816393673
v 0.086120314 0.532051205 -0.01627169 0.816393673 0.816393673 0.816393673
v -0.08612032 0.564594626 -0.01627169 0.816393673 0.816393673 0.816393673
v 0.086120374 0.564594626 -0.0162717 0.816393673 0.816393673 0.816393673
v -0.07798387 0.591084003 -0.01547727 0.816393673 0.816393673 0.816393673
v -0.06304303 0.611365854 -0.01833631 0.816393673 0.816393673 0.816393673
v 0.077983900 0.591083884 -0.01547725 0.816393673 0.816393673 0.816393673
v 0.063042976 0.611365914 -0.01833632 0.816393673 0.816393673 0.816393673
v -0.04276107 0.626306772 -0.01547724 0.816393673 0.816393673 0.816393673
v -0.01627171 0.634443283 -0.0162717 0.816393673 0.816393673 0.816393673
v 0.016271706 0.634443223 -0.01627169 0.816393673 0.816393673 0.816393673
v 0.042760983 0.626306831 -0.01547725 0.816393673 0.816393673 0.816393673
v -0.01627171 0.462202519 0.016271721 0.816393673 0.816393673 0.816393673
v -0.04276114 0.470339059 0.015477290 0.816393673 0.816393673 0.816393673
v 0.016271706 0.462202608 0.016271714 0.816393673 0.816393673 0.816393673
v 0.042761046 0.470339059 0.015477293 0.816393673 0.816393673 0.816393673
v -0.063043 0.485279917 0.018336344 0.816393673 0.816393673 0.816393673
v -0.07798383 0.505561828 0.015477286 0.816393673 0.816393673 0.816393673
v 0.063042931 0.485279917 0.018336350 0.816393673 0.816393673 0.816393673
v 0.077983871 0.505561888 0.015477269 0.816393673 0.816393673 0.816393673
v -0.08612033 0.532051205 0.016271716 0.816393673 0.816393673 0.816393673
v 0.086120374 0.532051205 0.016271721 0.816393673 0.816393673 0.816393673
v -0.08612039 0.564594626 0.016271721 0.816393673 0.816393673 0.816393673
v 0.086120307 0.564594626 0.016271714 0.816393673 0.816393673 0.816393673
v -0.07798388 0.591084003 0.015477293 0.816393673 0.816393673 0.816393673
v -0.06304303 0.611365854 0.018336352 0.816393673 0.816393673 0.816393673
v 0.077983893 0.591083884 0.015477272 0.816393673 0.816393673 0.816393673
v 0.063042976 0.611365914 0.018336359 0.816393673 0.816393673 0.816393673
v -0.04276105 0.626306772 0.015477268 0.816393673 0.816393673 0.816393673
v -0.0162717 0.634443283 0.016271714 0.816393673 0.816393673 0.816393673
v 0.016271714 0.634443283 0.016271719 0.816393673 0.816393673 0.816393673
v 0.042760983 0.626306831 0.015477273 0.816393673 0.816393673 0.816393673
v -0.03908812 0.476347267 0.039088189 0.816393673 0.816393673 0.816393673
v -0.01547727 0.47033903 0.042761068 0.816393673 0.816393673 0.816393673
v 0.015477283 0.470339059 0.042761050 0.816393673 0.816393673 0.816393673
v 0.039088174 0.476347327 0.039088182 0.816393673 0.816393673 0.816393673
v -0.04780131 0.500521600 0.047801315 0.816393673 0.816393673 0.816393673
v -0.07197564 0.509234786 0.039088193 0.816393673 0.816393673 0.816393673
v -0.01833632 0.485279917 0.063042946 0.816393673 0.816393673 0.816393673
v 0.018336342 0.485279917 0.063042938 0.816393673 0.816393673 0.816393673
v 0.052806738 0.495516061 0.052806746 0.816393673 0.816393673 0.816393673
v 0.071975655 0.509234845 0.039088141 0.816393673 0.816393673 0.816393673
v -0.07798386 0.532845616 0.042761050 0.816393673 0.816393673 0.816393673
v -0.06304303 0.529986619 0.063042938 0.816393673 0.816393673 0.816393673
v 0.077983908 0.532845675 0.042760994 0.816393673 0.816393673 0.816393673
v 0.063042976 0.529986619 0.063042983 0.816393673 0.816393673 0.816393673
v -0.07798388 0.563800215 0.042761061 0.816393673 0.816393673 0.816393673
v -0.06304302 0.566659271 0.063042931 0.816393673 0.816393673 0.816393673
v 0.077983886 0.563800215 0.042760979 0.816393673 0.816393673 0.816393673
v 0.063042968 0.566659271 0.063042976 0.816393673 0.816393673 0.816393673
v -0.07197562 0.587411105 0.039088182 0.816393673 0.816393673 0.816393673
v -0.05280686 0.601129651 0.052806749 0.816393673 0.816393673 0.816393673
v 0.071975641 0.587411046 0.039088133 0.816393673 0.816393673 0.816393673
v 0.052806779 0.601129651 0.052806787 0.816393673 0.816393673 0.816393673
v -0.03908807 0.620298624 0.039088141 0.816393673 0.816393673 0.816393673
v -0.01547725 0.626306831 0.042760983 0.816393673 0.816393673 0.816393673
v -0.01833632 0.611365914 0.063042983 0.816393673 0.816393673 0.816393673
v 0.015477266 0.626306831 0.042760986 0.816393673 0.816393673 0.816393673
v 0.018336352 0.611365914 0.063042976 0.816393673 0.816393673 0.816393673
v 0.039088126 0.620298504 0.039088133 0.816393673 0.816393673 0.816393673
v -0.03908809 0.509234845 0.071975693 0.816393673 0.816393673 0.816393673
v -0.01547725 0.505561888 0.077983878 0.816393673 0.816393673 0.816393673
v 0.015477260 0.505561888 0.077983871 0.816393673 0.816393673 0.816393673
v 0.039088137 0.509234845 0.071975685 0.816393673 0.816393673 0.816393673
v -0.04276107 0.532845675 0.077983878 0.816393673 0.816393673 0.816393673
v -0.01627171 0.532051205 0.086120396 0.816393673 0.816393673 0.816393673
v 0.016271706 0.532051205 0.086120322 0.816393673 0.816393673 0.816393673
v 0.042760975 0.532845675 0.077983900 0.816393673 0.816393673 0.816393673
v -0.04276105 0.563800215 0.077983871 0.816393673 0.816393673 0.816393673
v -0.0162717 0.564594626 0.086120314 0.816393673 0.816393673 0.816393673
v 0.016271712 0.564594626 0.086120382 0.816393673 0.816393673 0.816393673
v 0.042760983 0.563800215 0.077983900 0.816393673 0.816393673 0.816393673
v -0.03908808 0.587411046 0.071975670 0.816393673 0.816393673 0.816393673
v -0.01547725 0.591083884 0.077983900 0.816393673 0.816393673 0.816393673
v 0.015477265 0.591083884 0.077983900 0.816393673 0.816393673 0.816393673
v 0.039088126 0.587411046 0.071975648 0.816393673 0.816393673 0.816393673
s 0
f 1 2 3 4
f 5 6 2 1
f 7 6 5 8
f 9 1 4 10
f 11 5 1 9
f 12 8 5 11
f 9 10 13 14
f 15 11 9 14
f 16 12 11 15
f 17 18 3 2
f 17 19 20 18
f 21 17 2 6
f 21 22 19 17
f 21 6 7 23
f 24 22 21 23
f 25 4 3 18
f 25 18 26 27
f 28 23 7 8
f 29 23 28 30
f 31 10 4 25
f 31 25 27 32
f 33 28 8 12
f 34 30 28 33
f 13 10 31 35
f 31 32 36 35
f 37 14 13 35
f 38 15 14 37
f 33 12 16 39
f 16 15 38 39
f 40 34 33 39
f 37 35 41 42
f 43 38 37 42
f 44 39 38 43
f 45 46 20 19
f 47 45 19 22
f 47 22 24 48
f 49 18 20 46
f 49 50 26 18
f 51 48 24 23
f 51 23 29 52
f 53 27 26 50
f 54 52 29 30
f 55 32 27 53
f 56 54 30 34
f 36 32 55 57
f 58 35 36 57
f 56 34 40 59
f 40 39 60 59
f 41 35 58 61
f 62 42 41 61
f 63 43 42 62
f 60 39 44 64
f 44 43 63 64
f 65 66 46 45
f 67 65 45 47
f 68 67 47 48
f 69 49 46 66
f 69 70 50 49
f 71 68 48 51
f 72 71 51 52
f 73 53 50 70
f 74 72 52 54
f 75 55 53 73
f 76 74 54 56
f 77 57 55 75
f 78 58 57 77
f 79 76 56 59
f 79 59 60 80
f 81 61 58 78
f 82 62 61 81
f 83 63 62 82
f 84 80 60 64
f 84 64 63 83
f 85 66 65 86
f 87 86 65 67
f 88 87 67 68
f 69 66 85 89
f 90 70 69 89
f 91 89 85 86
f 92 91 86 87
f 88 68 71 93
f 92 87 88 93
f 94 93 71 72
f 73 70 90 95
f 96 95 90 89
f 94 72 74 97
f 98 93 94 97
f 99 75 73 95
f 100 99 95 96
f 101 97 74 76
f 101 102 98 97
f 103 77 75 99
f 78 77 103 104
f 103 99 100 104
f 105 101 76 79
f 105 79 80 106
f 105 106 102 101
f 107 81 78 104
f 82 81 107 108
f 107 104 109 108
f 110 83 82 108
f 110 108 109 111
f 112 106 80 84
f 112 84 83 110
f 112 110 111 106
f 113 89 91 114
f 115 114 91 92
f 116 115 92 93
f 96 89 113 117
f 118 117 113 114
f 119 118 114 115
f 116 93 98 120
f 119 115 116 120
f 121 100 96 117
f 122 121 117 118
f 123 122 118 119
f 124 120 98 102
f 124 123 119 120
f 125 104 100 121
f 109 104 125 126
f 125 121 122 126
f 127 111 109 126
f 127 126 122 123
f 128 124 102 106
f 128 106 111 127
f 128 127 123 124
o b
usemtl b
v 0.035367485 -0.32229349 -0.03321978 0.816393673 0.816393673 0.816393673
v 0.035051021 -0.49927422 -0.03298905 0.816393673 0.816393673 0.816393673
v -0.03505091 -0.49927422 -0.0329891 0.816393673 0.816393673 0.816393673
v -0.03536744 -0.32229343 -0.03321983 0.816393673 0.816393673 0.816393673
v 0.035369731 -0.09995477 -0.0331514 0.816393673 0.816393673 0.816393673
v -0.03536967 -0.09995477 -0.03315144 0.816393673 0.816393673 0.816393673
v 0.035369731 0.100105345 -0.0331514 0.816393673 0.816393673 0.816393673
v -0.03536967 0.100105345 -0.03315144 0.816393673 0.816393673 0.816393673
v 0.035367488 0.322444170 -0.03321978 0.816393673 0.816393673 0.816393673
v -0.03536744 0.322444140 -0.03321983 0.816393673 0.816393673 0.816393673
v 0.035051021 0.499275714 -0.0329891 0.816393673 0.816393673 0.816393673
v -0.03505091 0.499275714 -0.03298916 0.816393673 0.816393673 0.816393673
v 0.035050969 -0.49927422 0.033197805 0.816393673 0.816393673 0.816393673
v -0.03505097 -0.49927422 0.033197756 0.816393673 0.816393673 0.816393673
v -0.03536749 -0.32229349 0.033569525 0.816393673 0.816393673 0.816393673
v 0.035367440 -0.32229349 0.033569574 0.816393673 0.816393673 0.816393673
v -0.03536973 -0.09995477 0.033642228 0.816393673 0.816393673 0.816393673
v 0.035369671 -0.09995477 0.033642280 0.816393673 0.816393673 0.816393673
v -0.03536973 0.100105345 0.033642228 0.816393673 0.816393673 0.816393673
v 0.035369671 0.100105345 0.033642280 0.816393673 0.816393673 0.816393673
v -0.03536749 0.322444170 0.033569525 0.816393673 0.816393673 0.816393673
v 0.035367440 0.322444170 0.033569574 0.816393673 0.816393673 0.816393673
v -0.03505097 0.499275714 0.033197708 0.816393673 0.816393673 0.816393673
v 0.035050969 0.499275714 0.033197756 0.816393673 0.816393673 0.816393673
s 0
f 129 130 131 132
f 133 129 132 134
f 135 133 134 136
f 137 135 136 138
f 139 137 138 140
f 141 142 131 130
f 143 132 131 142
f 144 141 130 129
f 144 143 142 141
f 145 134 132 143
f 146 144 129 133
f 146 145 143 144
f 147 136 134 145
f 148 146 133 135
f 148 147 145 146
f 149 138 136 147
f 150 148 135 137
f 150 149 147 148
f 151 140 138 149
f 152 150 137 139
f 152 139 140 151
f 152 151 149 150
